<svg width="39" height="43" viewBox="0 0 39 43" fill="none" xmlns="http://www.w3.org/2000/svg">
<path d="M19.3419 16.7345C17.0077 16.7345 15.1045 18.875 15.1045 21.5C15.1045 24.1251 17.0077 26.2656 19.3419 26.2656C21.6728 26.2656 23.5793 24.1251 23.5793 21.5C23.5793 18.875 21.6728 16.7345 19.3419 16.7345Z" fill="white"/>
<path d="M25.035 9.81006H13.645C11.066 9.81006 8.94727 12.1745 8.94727 15.0969V27.903C8.94727 30.8071 11.0464 33.1898 13.645 33.1898H25.035C27.6173 33.1898 29.736 30.8254 29.736 27.903V15.0969C29.7197 12.1745 27.6173 9.81006 25.035 9.81006ZM19.3416 28.6666C15.8159 28.6666 12.9529 25.4468 12.9529 21.4816C12.9529 17.5164 15.8159 14.2966 19.3416 14.2966C22.8674 14.2966 25.7304 17.5164 25.7304 21.4816C25.7141 25.4468 22.8478 28.6666 19.3416 28.6666ZM26.1776 15.5045C25.3321 15.5045 24.6367 14.7225 24.6367 13.7752C24.6367 12.8243 25.3321 12.0423 26.1776 12.0423C27.0199 12.0423 27.7152 12.8243 27.7152 13.7752C27.7152 14.7408 27.0362 15.5045 26.1776 15.5045Z" fill="white"/>
<mask id="mask0_210_778" style="mask-type:luminance" maskUnits="userSpaceOnUse" x="0" y="0" width="39" height="43">
<path d="M0.224609 0H38.4591V43H0.224609V0Z" fill="white"/>
</mask>
<g mask="url(#mask0_210_778)">
<path d="M19.3419 0C8.78102 0 0.224609 9.62287 0.224609 21.5C0.224609 33.3735 8.78102 43 19.3419 43C29.8995 43 38.4591 33.3735 38.4591 21.5C38.4428 9.62287 29.8831 0 19.3419 0ZM31.8713 27.903C31.8713 32.1472 28.7928 35.6094 25.0189 35.6094H13.6452C9.87139 35.6094 6.79291 32.1472 6.79291 27.903V15.097C6.79291 10.8528 9.87139 7.39062 13.6452 7.39062H25.0353C28.8091 7.39062 31.8876 10.8528 31.8876 15.097V27.903H31.8713Z" fill="white"/>
</g>
</svg>
