<svg width="52" height="31" viewBox="0 0 52 31" fill="none" xmlns="http://www.w3.org/2000/svg">
<g clip-path="url(#clip0_133_640)">
<mask id="mask0_133_640" style="mask-type:luminance" maskUnits="userSpaceOnUse" x="0" y="9" width="20" height="18">
<path d="M0.105713 9.55029H19.0013V26.1904H0.105713V9.55029Z" fill="white"/>
</mask>
<g mask="url(#mask0_133_640)">
<path fill-rule="evenodd" clip-rule="evenodd" d="M15.5597 17.9044C18.2868 17.4497 18.3352 13.7746 16.1575 12.4862L16.6596 12.6531C18.9077 13.7987 18.5741 18.1427 15.5597 17.9044ZM19.053 15.2782C19.053 17.1399 17.569 18.6666 15.6313 18.9061C15.2724 18.8819 14.8177 18.738 14.5072 18.738C14.5546 18.9775 14.7703 19.1444 15.0093 19.2642C14.8893 21.1731 14.8177 23.1304 15.2482 25.2304C14.6503 25.7071 13.5736 26.019 12.3295 26.1849C12.3295 26.1849 12.1391 26.2091 11.9717 26.1135C11.8275 26.019 11.7791 25.7554 11.7791 25.7313C11.8044 25.3974 11.8517 25.0404 11.876 24.7054C12.0191 23.3456 12.2338 21.4598 12.5685 20.1472C12.7369 19.4069 12.9516 19.765 13.5736 19.3355C13.8852 19.1444 14.0999 18.8347 14.2199 18.19C14.4588 16.8774 14.2199 15.0157 13.2863 14.8488H13.2632C12.3295 14.6576 11.4444 16.3041 11.1813 17.6408C11.0624 18.2855 11.1581 18.6194 11.3728 18.9303C11.8044 19.5497 12.1622 19.24 12.0664 20.0517C11.876 21.3873 11.4213 23.1062 11.0866 24.4198C10.9666 24.9438 10.8223 25.4929 10.655 26.0663C10.6077 26.1135 10.5834 26.1618 10.535 26.1618C10.4161 26.1849 10.3688 25.9707 10.3445 25.9466C10.0572 23.8223 9.74562 20.0275 9.79406 18.4525C9.8414 17.5694 10.7981 18.023 10.775 17.0916C10.7266 15.6121 10.6308 14.3468 10.655 12.8673C10.655 12.7729 10.5834 12.7729 10.5592 12.7729C10.535 12.7729 10.4634 12.7959 10.4403 12.8673L10.3203 16.3282C10.3203 16.448 10.0814 16.448 10.0572 16.3041L9.96141 12.7729C9.96141 12.7245 9.91296 12.7004 9.86562 12.7004C9.8414 12.7004 9.81828 12.7245 9.81828 12.7729L9.67406 16.2799C9.65094 16.448 9.41093 16.448 9.38781 16.2799L9.24359 12.7729C9.24359 12.7245 9.21937 12.7004 9.19625 12.7004C9.14891 12.7004 9.10046 12.7245 9.10046 12.7729L9.00468 16.3041C8.98046 16.448 8.74155 16.448 8.76577 16.3282L8.62155 12.8673C8.59843 12.7959 8.52577 12.7729 8.50265 12.7729C8.47843 12.7729 8.40687 12.7729 8.40687 12.8673C8.42999 14.3468 8.3342 15.6121 8.28686 17.0916C8.26374 18.023 9.24359 17.6166 9.26671 18.4525C9.31515 20.0517 9.00468 23.9651 8.69311 26.0421C8.66999 26.1377 8.62155 26.2091 8.54999 26.1849C8.50265 26.1849 8.42999 26.1135 8.40687 26.0421C8.23842 25.1118 8.07218 24.0365 7.97529 22.8679C7.97529 22.7965 7.95217 22.7009 7.92795 22.6054C7.90373 22.534 7.83217 22.5098 7.76061 22.4867C7.73639 22.4626 7.66483 22.0089 7.71217 21.9606C7.78483 21.8178 7.88061 21.8892 7.80795 21.4598L7.01857 15.064C7.01857 15.064 6.97123 14.2282 6.42075 14.539C6.10919 14.7049 5.87028 15.2068 5.79872 15.9702C5.72716 17.0444 5.82294 21.4598 6.22919 21.7937C6.42075 21.9606 6.61122 22.1034 7.01857 22.0803H7.04279C7.13857 22.0803 7.18701 22.5098 7.16169 22.534C7.09013 22.5812 7.06701 22.6295 7.04279 22.7251C7.06701 22.8195 7.06701 22.8909 7.06701 22.9634C7.23436 24.0607 7.23436 25.0635 7.18701 25.9235C7.16169 25.9707 7.13857 25.9949 7.11435 26.019C6.99545 26.1618 6.80388 26.1618 6.75544 26.1618C5.41669 25.9949 4.33886 25.6599 3.95573 25.2304C4.29152 22.8195 4.2673 20.982 4.17262 19.2158C4.55465 19.1686 4.91356 19.073 5.34403 18.8347C4.98512 18.8589 5.22512 18.8347 4.84089 18.8819C4.57887 18.9303 4.36308 18.9533 4.1484 18.9533C4.12418 18.9533 4.09995 18.9533 4.07683 18.9533C3.86105 18.9533 3.66948 18.9303 3.40636 18.9061C1.54025 18.5953 0.105713 17.0916 0.105713 15.2782C0.105713 14.1326 0.655086 13.1298 1.51713 12.4379C2.97589 11.3164 4.12418 11.579 5.84716 12.3423C6.32497 12.5576 6.13341 12.5093 6.56388 12.5576C5.82294 12.0798 5.15246 11.6262 4.43464 11.3878C5.05778 10.2895 6.42075 9.55029 7.99951 9.55029C8.98046 9.55029 9.88984 9.86003 10.5834 10.3378H10.5592C9.33937 11.1012 9.10046 11.4362 7.56904 11.4592C8.62155 12.0556 10.2014 11.0298 10.9192 10.72C12.1149 10.1709 13.2863 10.385 14.3388 11.1737C13.7421 11.1495 12.0664 11.7217 11.6602 12.7959C14.5072 11.1253 19.053 11.0539 19.053 15.2782ZM1.27712 16.0416C1.85182 17.5211 2.95277 18.2141 4.79355 18.3097L4.2673 18.4041C3.23901 18.4525 2.21073 18.023 1.58869 17.2113C1.27712 16.806 1.22978 16.5194 1.27712 16.0416Z" fill="#3A7D3F"/>
</g>
<path fill-rule="evenodd" clip-rule="evenodd" d="M41.4727 21.3422C41.4672 21.3719 41.4793 21.4301 41.5189 21.5026C41.585 21.6267 41.7237 21.82 41.8646 22.0067C42.0232 22.2165 42.1388 22.4548 42.2268 22.5658C42.2577 22.6053 42.2885 22.6317 42.3149 22.6437C42.349 22.6602 42.381 22.6602 42.4118 22.647C42.6606 22.5427 43.3883 22.1132 44.0863 21.7189C44.6247 21.4158 45.1455 21.1357 45.3568 20.9962C45.4229 20.9512 45.4625 20.9149 45.4746 20.8952C45.4823 20.8831 45.4879 20.8666 45.4879 20.8457C45.4879 20.8282 45.4834 20.8018 45.4702 20.7689C45.4218 20.648 45.2478 20.3833 45.0838 20.1263C44.9308 19.8847 44.7887 19.6496 44.7172 19.5563C44.6875 19.5178 44.661 19.4981 44.6478 19.4915C44.6203 19.4805 44.5796 19.4761 44.5289 19.486C44.4497 19.5014 44.3286 19.553 44.181 19.6299C43.7153 19.8726 42.9557 20.3778 42.3138 20.7414C42.0254 20.9061 41.7556 21.0325 41.6092 21.1511C41.5288 21.2148 41.4837 21.2796 41.4727 21.3422ZM44.584 19.6288C44.6445 19.6969 44.7932 19.9484 44.9583 20.2065C45.0838 20.4031 45.2159 20.6052 45.2897 20.7392C45.3073 20.77 45.3227 20.8073 45.3315 20.8282C45.304 20.849 45.2456 20.8908 45.1829 20.9292C44.9363 21.0797 44.4805 21.3257 44.0137 21.5893C43.3377 21.9705 42.6353 22.3856 42.3722 22.5021C42.359 22.4878 42.3292 22.4559 42.3083 22.423C42.2257 22.2989 42.1211 22.0979 41.9835 21.9177C41.8481 21.7376 41.7138 21.552 41.651 21.4323C41.6367 21.4059 41.6235 21.3708 41.6202 21.3631C41.6257 21.3444 41.6389 21.3268 41.6565 21.3092C41.683 21.2796 41.7215 21.251 41.7666 21.2203C41.9175 21.1192 42.1465 21.0083 42.3876 20.871C43.0272 20.5085 43.7858 20.0044 44.2493 19.7617C44.3638 19.7024 44.4585 19.6595 44.5289 19.6397C44.5476 19.6343 44.5642 19.631 44.5785 19.6299C44.5807 19.6299 44.5829 19.6299 44.584 19.6288Z" fill="#3A7D3F"/>
<path fill-rule="evenodd" clip-rule="evenodd" d="M38.5509 10.0423C36.8565 10.7837 36.131 11.7404 36.0132 12.6839C35.8954 13.6295 36.3897 14.5708 37.1604 15.2859C37.5325 15.6319 38.2789 15.9625 39.1894 16.1689C40.5458 16.4754 42.2666 16.5061 43.6405 15.9152C44.758 15.4341 45.4637 14.7477 45.685 13.9338C45.9063 13.1199 45.6443 12.1742 44.8031 11.1714C44.2163 10.4707 43.3069 10.0555 42.3414 9.84901C40.9014 9.54147 39.338 9.69743 38.5509 10.0423ZM38.6114 10.1785C39.3788 9.84242 40.9047 9.69414 42.3095 9.99509C43.242 10.1939 44.1217 10.5904 44.6886 11.267C45.489 12.2226 45.7511 13.1199 45.5408 13.8954C45.3294 14.6719 44.6479 15.3188 43.5822 15.7779C42.2357 16.3579 40.5513 16.3238 39.2224 16.0229C38.3439 15.8252 37.6217 15.511 37.2616 15.1771C36.5284 14.4962 36.0484 13.6032 36.1618 12.7025C36.2741 11.7964 36.9842 10.8913 38.6114 10.1785Z" fill="#3A7D3F"/>
<path fill-rule="evenodd" clip-rule="evenodd" d="M36.0197 12.5992C35.936 13.4603 35.6674 14.9683 37.4729 16.3281C38.139 16.8289 39.0429 17.1156 39.9908 17.2298C41.4077 17.4023 42.9226 17.1925 43.8915 16.7619C44.8251 16.3457 45.5429 15.3901 45.7124 14.7135C45.9381 13.814 45.7994 13.2472 45.7069 12.8101C45.6981 12.7694 45.6585 12.7442 45.6178 12.7529C45.577 12.7617 45.5517 12.8013 45.5605 12.8408C45.6497 13.2626 45.7851 13.8096 45.5671 14.6773C45.4053 15.322 44.7205 16.2292 43.8298 16.6257C42.8819 17.0475 41.3967 17.2507 40.0084 17.0827C39.088 16.9706 38.2095 16.696 37.5621 16.2084C35.8226 14.8991 36.0879 13.4438 36.1694 12.6134C36.1727 12.5728 36.143 12.5355 36.1023 12.5322C36.0604 12.5278 36.0241 12.5574 36.0197 12.5992Z" fill="#3A7D3F"/>
<mask id="mask1_133_640" style="mask-type:luminance" maskUnits="userSpaceOnUse" x="34" y="12" width="18" height="14">
<path d="M34.9485 12.9343H51.7082V25.5874H34.9485V12.9343Z" fill="white"/>
</mask>
<g mask="url(#mask1_133_640)">
<path fill-rule="evenodd" clip-rule="evenodd" d="M35.9757 13.276C35.75 14.013 35.2832 14.6983 35.1269 15.4156C34.9144 16.3909 35.0982 17.3728 35.6454 18.1065C36.4161 19.1401 38.4011 21.4159 40.102 23.1941C41.1435 24.2826 42.0529 25.2393 42.5968 25.4578C42.6728 25.4886 42.7895 25.4908 42.9403 25.4611C43.1429 25.4205 43.4137 25.3249 43.7363 25.1854C45.8446 24.2727 50.1636 21.4796 51.3196 20.6624C51.4814 20.5482 51.5651 20.3527 51.5838 20.1308C51.6092 19.8167 51.5035 19.452 51.3339 19.2269C50.9332 18.6963 50.2264 17.2937 49.1144 16.1042C47.6556 14.5468 45.7785 13.2101 45.7785 13.2101C45.7455 13.187 45.6982 13.1947 45.6739 13.2276C45.6508 13.2617 45.6585 13.3078 45.6916 13.332C45.6916 13.332 47.5566 14.6588 49.0054 16.2064C50.113 17.3904 50.8154 18.7886 51.2139 19.3169C51.3647 19.5157 51.4572 19.8397 51.4341 20.1187C51.4198 20.2934 51.3603 20.4504 51.2326 20.5405C50.0821 21.3555 45.7774 24.1387 43.6768 25.0481C43.3664 25.1832 43.1054 25.2755 42.9117 25.3139C42.7983 25.337 42.7102 25.3425 42.6529 25.3194C42.4427 25.2349 42.1773 25.035 41.8702 24.7593C41.3968 24.3364 40.8276 23.7367 40.2099 23.0909C38.5145 21.3181 36.5339 19.0478 35.7654 18.0176C35.2436 17.3168 35.0696 16.3788 35.2733 15.4474C35.4285 14.7335 35.8942 14.0525 36.1188 13.3199C36.1309 13.2804 36.1078 13.2386 36.0693 13.2265C36.0296 13.2145 35.9878 13.2364 35.9757 13.276Z" fill="#3A7D3F"/>
</g>
<mask id="mask2_133_640" style="mask-type:luminance" maskUnits="userSpaceOnUse" x="40" y="20" width="12" height="7">
<path d="M40.0217 20.2449H51.5773V26.2979H40.0217V20.2449Z" fill="white"/>
</mask>
<g mask="url(#mask2_133_640)">
<path fill-rule="evenodd" clip-rule="evenodd" d="M40.0966 23.2016C40.0966 23.2016 40.8563 25.0556 41.3528 25.5378C41.617 25.7948 41.9935 26.0331 42.3745 26.1309C42.6376 26.1979 42.9018 26.199 43.1352 26.099C43.9092 25.7662 45.3646 24.7777 46.9236 23.8463C48.6356 22.8237 50.4521 21.8484 51.1732 21.3684C51.2525 21.3146 51.3131 21.2136 51.3527 21.0949C51.4353 20.8489 51.4386 20.5282 51.4386 20.5282C51.4397 20.4864 51.4066 20.4535 51.3648 20.4524C51.3241 20.4524 51.2899 20.4853 51.2899 20.526C51.2899 20.526 51.2877 20.7446 51.2382 20.9499C51.2096 21.0719 51.1677 21.1927 51.0907 21.2443C50.3706 21.7243 48.5552 22.6974 46.8465 23.7189C45.2953 24.6459 43.8464 25.6311 43.0758 25.9617C42.8721 26.0496 42.6409 26.0452 42.4119 25.987C42.0563 25.8947 41.704 25.6707 41.4563 25.4301C40.9719 24.96 40.2342 23.1456 40.2342 23.1456C40.2188 23.1071 40.1759 23.0895 40.1373 23.1049C40.0988 23.1203 40.0801 23.1642 40.0966 23.2016Z" fill="#3A7D3F"/>
</g>
<path fill-rule="evenodd" clip-rule="evenodd" d="M40.1361 20.4733C40.1416 20.5271 40.1955 20.6458 40.2902 20.8072C40.4928 21.1521 40.8803 21.7188 41.2722 22.2878C41.6433 22.826 42.0165 23.3686 42.284 23.6761C42.4095 23.82 42.5174 23.9123 42.5912 23.9408C42.6286 23.9551 42.6826 23.9584 42.7497 23.9452C42.8301 23.9309 42.9347 23.8936 43.058 23.8398C43.5171 23.6388 44.2536 23.1939 44.9483 22.7941C45.5054 22.4756 46.0493 22.2098 46.3355 22.0033C46.4159 21.9462 46.4775 21.8924 46.5161 21.843C46.5491 21.8012 46.5678 21.7595 46.5722 21.7232C46.5744 21.7068 46.5733 21.6848 46.5667 21.6584C46.5568 21.6189 46.5337 21.5629 46.4973 21.4915C46.3113 21.1213 45.7718 20.3261 45.2951 19.6243C44.9494 19.1168 44.651 18.6599 44.4518 18.4403C44.3945 18.3776 44.3439 18.3326 44.302 18.3085C44.258 18.2832 44.2184 18.2777 44.1864 18.2832C43.7725 18.3623 42.6484 18.9642 41.6675 19.4815C41.1115 19.7737 40.5908 20.0263 40.3331 20.2097C40.2594 20.2624 40.2054 20.3119 40.1746 20.3536C40.1438 20.3964 40.1328 20.4371 40.1361 20.4733ZM44.2107 18.4304C44.2151 18.4326 44.2305 18.4392 44.2415 18.4468C44.2701 18.4666 44.3043 18.4996 44.3417 18.5413C44.5377 18.7566 44.8305 19.208 45.1707 19.7078C45.5858 20.3173 46.0482 20.9983 46.2805 21.4047C46.3388 21.5058 46.3817 21.5892 46.406 21.6497C46.4159 21.6727 46.4225 21.7013 46.4236 21.7057C46.4203 21.7254 46.4038 21.7463 46.3828 21.7694C46.3509 21.8045 46.3047 21.8419 46.2485 21.8825C45.9645 22.0868 45.425 22.3493 44.8745 22.6656C44.1842 23.061 43.4532 23.5037 42.9985 23.7025C42.8873 23.7519 42.7938 23.786 42.7222 23.7991C42.6892 23.8057 42.6627 23.809 42.644 23.8013C42.5835 23.7783 42.4998 23.6959 42.3974 23.5784C42.131 23.2741 41.7622 22.7359 41.3955 22.2032C41.0058 21.6376 40.6205 21.0752 40.419 20.7325C40.3419 20.6007 40.2902 20.5063 40.2847 20.4601C40.2858 20.459 40.288 20.4546 40.2891 20.4524C40.2935 20.4437 40.3001 20.436 40.3067 20.4272C40.332 20.3975 40.3717 20.3657 40.4201 20.3316C40.6744 20.1493 41.1886 19.9022 41.7368 19.6133C42.6991 19.1059 43.8 18.5116 44.2107 18.4304Z" fill="#3A7D3F"/>
<path fill-rule="evenodd" clip-rule="evenodd" d="M44.5675 18.2426C44.5741 18.2943 44.628 18.4052 44.7227 18.5568C44.9253 18.8775 45.3084 19.4014 45.696 19.9286C46.0615 20.4273 46.4303 20.9303 46.6923 21.2126C46.8156 21.3455 46.9202 21.4312 46.9918 21.4553C47.0281 21.4685 47.0798 21.4696 47.1437 21.4553C47.2186 21.4378 47.3176 21.4004 47.4321 21.3444C47.8593 21.1401 48.5386 20.6964 49.1816 20.2966C49.6968 19.9759 50.201 19.7079 50.4653 19.5036C50.539 19.4464 50.5952 19.3926 50.6304 19.3454C50.6612 19.3037 50.6766 19.2641 50.6799 19.2279C50.6821 19.2125 50.6799 19.1916 50.6733 19.1653C50.6623 19.129 50.6392 19.0752 50.6029 19.0082C50.4157 18.6644 49.8818 17.9263 49.4105 17.2761C49.0682 16.806 48.7731 16.382 48.5793 16.181C48.5221 16.1228 48.4725 16.0811 48.4318 16.0602C48.3889 16.036 48.3503 16.0317 48.3195 16.0393C47.932 16.1261 46.8894 16.7313 45.9811 17.2519C45.467 17.5474 44.9825 17.8022 44.7458 17.9845C44.6776 18.0373 44.628 18.0845 44.6005 18.1262C44.5719 18.1691 44.5631 18.2086 44.5675 18.2426ZM48.3481 16.1854C48.3514 16.1876 48.3657 16.1931 48.3746 16.1986C48.4021 16.2173 48.4351 16.2469 48.4714 16.2843C48.663 16.4831 48.9526 16.9005 49.2894 17.364C49.699 17.9285 50.1559 18.559 50.3882 18.9368C50.4454 19.0313 50.4895 19.1081 50.5137 19.1642C50.5225 19.185 50.5302 19.2114 50.5313 19.2158C50.528 19.2345 50.5148 19.2531 50.4961 19.2751C50.4664 19.3091 50.4245 19.3465 50.3739 19.386C50.113 19.587 49.612 19.8528 49.1034 20.1692C48.4648 20.5657 47.7911 21.0072 47.3683 21.2104C47.2648 21.2598 47.1778 21.295 47.1118 21.3093C47.0809 21.3158 47.0578 21.3202 47.0413 21.3147C46.983 21.295 46.9026 21.2192 46.8024 21.1116C46.5426 20.8315 46.1782 20.3339 45.816 19.8408C45.4306 19.3168 45.0508 18.7962 44.8493 18.4766C44.7734 18.3558 44.7227 18.269 44.7161 18.2262C44.7172 18.2229 44.726 18.2064 44.7348 18.1954C44.7579 18.168 44.7921 18.1361 44.8372 18.1021C45.0706 17.923 45.5484 17.6726 46.056 17.3815C46.9455 16.8719 47.9628 16.2755 48.3481 16.1854Z" fill="#3A7D3F"/>
<path d="M46.7936 19.24C46.7936 19.3169 46.7837 19.3915 46.7628 19.4629C46.7418 19.5343 46.7132 19.598 46.6747 19.6518C46.6361 19.7068 46.5921 19.7496 46.5426 19.7782C46.493 19.8078 46.4413 19.8232 46.3873 19.8232C46.3334 19.8232 46.2816 19.8078 46.231 19.7782C46.1815 19.7496 46.1374 19.7068 46.0989 19.6518C46.0615 19.598 46.0317 19.5343 46.0108 19.4629C45.9899 19.3915 45.98 19.3169 45.98 19.24C45.98 19.162 45.9899 19.0884 46.0108 19.017C46.0317 18.9445 46.0615 18.8819 46.0989 18.827C46.1374 18.7721 46.1815 18.7303 46.231 18.7007C46.2816 18.671 46.3334 18.6567 46.3873 18.6567C46.4413 18.6567 46.493 18.671 46.5426 18.7007C46.5921 18.7303 46.6361 18.7721 46.6747 18.827C46.7132 18.8819 46.7418 18.9445 46.7628 19.017C46.7837 19.0884 46.7936 19.162 46.7936 19.24Z" fill="#3A7D3F"/>
<path d="M47.8307 18.6401C47.8307 18.7181 47.8208 18.7928 47.7999 18.8642C47.78 18.9356 47.7503 18.9982 47.7118 19.0531C47.6744 19.108 47.6303 19.1497 47.5797 19.1794C47.5301 19.2091 47.4784 19.2244 47.4244 19.2244C47.3705 19.2244 47.3187 19.2091 47.2681 19.1794C47.2186 19.1497 47.1745 19.108 47.136 19.0531C47.0986 18.9982 47.0688 18.9356 47.0479 18.8642C47.027 18.7928 47.0171 18.7181 47.0171 18.6401C47.0171 18.5632 47.027 18.4885 47.0479 18.4171C47.0688 18.3458 47.0986 18.2831 47.136 18.2282C47.1745 18.1733 47.2186 18.1316 47.2681 18.1019C47.3187 18.0723 47.3705 18.0569 47.4244 18.0569C47.4784 18.0569 47.5301 18.0723 47.5797 18.1019C47.6303 18.1316 47.6744 18.1733 47.7118 18.2282C47.7503 18.2831 47.78 18.3458 47.7999 18.4171C47.8208 18.4885 47.8307 18.5632 47.8307 18.6401Z" fill="#3A7D3F"/>
<path d="M48.8887 18.0207C48.8887 18.0987 48.8777 18.1723 48.8567 18.2437C48.8369 18.3151 48.8072 18.3788 48.7687 18.4337C48.7312 18.4875 48.6872 18.5304 48.6366 18.56C48.587 18.5897 48.5353 18.604 48.4813 18.604C48.4274 18.604 48.3756 18.5897 48.325 18.56C48.2754 18.5304 48.2314 18.4875 48.1929 18.4337C48.1554 18.3788 48.1257 18.3151 48.1048 18.2437C48.085 18.1723 48.074 18.0987 48.074 18.0207C48.074 17.9438 48.085 17.8692 48.1048 17.7978C48.1257 17.7264 48.1554 17.6627 48.1929 17.6077C48.2314 17.5539 48.2754 17.5111 48.325 17.4814C48.3756 17.4518 48.4274 17.4375 48.4813 17.4375C48.5353 17.4375 48.587 17.4518 48.6366 17.4814C48.6872 17.5111 48.7312 17.5539 48.7687 17.6077C48.8072 17.6627 48.8369 17.7264 48.8567 17.7978C48.8777 17.8692 48.8887 17.9438 48.8887 18.0207Z" fill="#3A7D3F"/>
<path fill-rule="evenodd" clip-rule="evenodd" d="M43.4544 22.2781L43.7693 22.7295C43.7924 22.7635 43.8397 22.7723 43.8739 22.7482C43.9069 22.7251 43.9157 22.679 43.8915 22.6449L43.5777 22.1935C43.5535 22.1595 43.5073 22.1507 43.4731 22.1748C43.439 22.1979 43.4313 22.2451 43.4544 22.2781Z" fill="#3A7D3F"/>
<path fill-rule="evenodd" clip-rule="evenodd" d="M43.745 22.4735L43.8518 22.1309C43.8639 22.0913 43.8419 22.0496 43.8033 22.0375C43.7637 22.0254 43.7219 22.0474 43.7098 22.0869L43.603 22.4296C43.5898 22.4691 43.6118 22.5109 43.6514 22.523C43.691 22.535 43.7329 22.5131 43.745 22.4735Z" fill="#3A7D3F"/>
<path fill-rule="evenodd" clip-rule="evenodd" d="M43.6967 22.5284L44.0005 22.5526C44.0424 22.5559 44.0776 22.5251 44.0809 22.4845C44.0842 22.4438 44.0534 22.4076 44.0126 22.4043L43.7088 22.3801C43.6681 22.3768 43.6317 22.4076 43.6284 22.4482C43.6251 22.4889 43.6559 22.5251 43.6967 22.5284Z" fill="#3A7D3F"/>
<path fill-rule="evenodd" clip-rule="evenodd" d="M44.2934 21.9946C44.2923 21.9946 44.2901 21.9946 44.289 21.9946C44.2504 21.9924 44.2174 22.0066 44.191 22.0308C44.1624 22.0572 44.1425 22.0956 44.1326 22.1297C44.1139 22.1956 44.1227 22.2955 44.1646 22.3603C44.1998 22.4163 44.2559 22.4504 44.3341 22.4394C44.3803 22.4328 44.4156 22.4086 44.4376 22.3724C44.4442 22.3834 44.4508 22.3944 44.4574 22.4053C44.4431 22.457 44.4354 22.5119 44.4354 22.5734C44.4354 22.5997 44.453 22.681 44.4838 22.7206C44.5158 22.759 44.5554 22.7722 44.5994 22.7579C44.66 22.737 44.6897 22.6931 44.6974 22.6382C44.7051 22.5844 44.6853 22.5174 44.6644 22.4745C44.6501 22.446 44.6347 22.4185 44.6204 22.39C44.6369 22.346 44.6578 22.3032 44.682 22.2549C44.7007 22.2175 44.6853 22.1736 44.649 22.1549C44.6115 22.1362 44.5675 22.1516 44.5488 22.1879C44.5411 22.2032 44.5345 22.2175 44.5268 22.2318C44.5059 22.1978 44.4838 22.1648 44.4607 22.1318C44.4574 22.1264 44.4508 22.1187 44.4442 22.1099C44.4354 22.0879 44.4233 22.067 44.4101 22.0495C44.409 22.0462 44.3925 22.0198 44.3881 22.0143C44.3803 22.0055 44.3737 22 44.3671 21.9968C44.3385 21.9803 44.3143 21.9836 44.2934 21.9946ZM44.2857 22.1505C44.2824 22.1571 44.278 22.1659 44.2758 22.1714C44.2691 22.1978 44.2702 22.2362 44.2835 22.2658C44.289 22.279 44.2956 22.2944 44.311 22.2922C44.3121 22.2911 44.3132 22.2889 44.3143 22.2867C44.3165 22.2812 44.3187 22.2746 44.3198 22.2669C44.3242 22.2395 44.3209 22.2076 44.3143 22.1868C44.3055 22.1758 44.2945 22.1626 44.2857 22.1505Z" fill="#3A7D3F"/>
<mask id="mask3_133_640" style="mask-type:luminance" maskUnits="userSpaceOnUse" x="21" y="0" width="12" height="31">
<path d="M21.7019 0H32.1301V30.7902H21.7019V0Z" fill="white"/>
</mask>
<g mask="url(#mask3_133_640)">
<path d="M26.7233 30.6726L27.1428 0.00541449" stroke="#014010" stroke-width="3.97297"/>
</g>
</g>
<defs>
<clipPath id="clip0_133_640">
<rect width="52" height="31" fill="white"/>
</clipPath>
</defs>
</svg>
